<svg xmlns="http://www.w3.org/2000/svg" xmlns:xlink="http://www.w3.org/1999/xlink" width="500" zoomAndPan="magnify" viewBox="0 0 375 374.999991" height="500" preserveAspectRatio="xMidYMid meet" version="1.0"><defs><clipPath id="be29ecbb96"><path d="M 7.164062 7.164062 L 367.835938 7.164062 L 367.835938 367.835938 L 7.164062 367.835938 Z M 7.164062 7.164062 " clip-rule="nonzero"/></clipPath><clipPath id="ffd6f6d813"><path d="M 187.5 7.164062 C 87.902344 7.164062 7.164062 87.902344 7.164062 187.5 C 7.164062 287.097656 87.902344 367.835938 187.5 367.835938 C 287.097656 367.835938 367.835938 287.097656 367.835938 187.5 C 367.835938 87.902344 287.097656 7.164062 187.5 7.164062 " clip-rule="nonzero"/></clipPath><clipPath id="3ade317c8e"><path d="M 72.480469 56.050781 L 302.730469 56.050781 L 302.730469 263 L 72.480469 263 Z M 72.480469 56.050781 " clip-rule="nonzero"/></clipPath><clipPath id="27568e6c58"><path d="M 166 311 L 209 311 L 209 319.300781 L 166 319.300781 Z M 166 311 " clip-rule="nonzero"/></clipPath></defs><g clip-path="url(#be29ecbb96)"><g clip-path="url(#ffd6f6d813)"><path fill="#153ec5" d="M 7.164062 7.164062 L 367.835938 7.164062 L 367.835938 367.835938 L 7.164062 367.835938 Z M 7.164062 7.164062 " fill-opacity="1" fill-rule="nonzero"/></g></g><path fill="#ffffff" d="M 191.617188 265.785156 C 191.617188 266.058594 191.59375 266.324219 191.539062 266.589844 C 191.488281 266.855469 191.410156 267.113281 191.304688 267.363281 C 191.203125 267.613281 191.074219 267.847656 190.925781 268.074219 C 190.777344 268.296875 190.605469 268.507812 190.414062 268.699219 C 190.222656 268.886719 190.015625 269.058594 189.789062 269.210938 C 189.566406 269.359375 189.328125 269.484375 189.078125 269.589844 C 188.828125 269.691406 188.570312 269.769531 188.308594 269.824219 C 188.042969 269.875 187.773438 269.902344 187.503906 269.902344 C 187.234375 269.902344 186.964844 269.875 186.703125 269.824219 C 186.4375 269.769531 186.179688 269.691406 185.929688 269.589844 C 185.679688 269.484375 185.441406 269.359375 185.21875 269.210938 C 184.992188 269.058594 184.785156 268.886719 184.59375 268.699219 C 184.402344 268.507812 184.234375 268.296875 184.082031 268.074219 C 183.933594 267.847656 183.804688 267.613281 183.703125 267.363281 C 183.597656 267.113281 183.519531 266.855469 183.46875 266.589844 C 183.414062 266.324219 183.390625 266.058594 183.390625 265.785156 C 183.390625 265.515625 183.414062 265.25 183.46875 264.984375 C 183.519531 264.71875 183.597656 264.460938 183.703125 264.210938 C 183.804688 263.960938 183.933594 263.722656 184.082031 263.5 C 184.234375 263.273438 184.402344 263.066406 184.59375 262.875 C 184.785156 262.683594 184.992188 262.515625 185.21875 262.363281 C 185.441406 262.214844 185.679688 262.085938 185.929688 261.984375 C 186.179688 261.878906 186.4375 261.800781 186.703125 261.75 C 186.964844 261.695312 187.234375 261.671875 187.503906 261.671875 C 187.773438 261.671875 188.042969 261.695312 188.308594 261.75 C 188.570312 261.800781 188.828125 261.878906 189.078125 261.984375 C 189.328125 262.085938 189.566406 262.214844 189.789062 262.363281 C 190.015625 262.515625 190.222656 262.683594 190.414062 262.875 C 190.605469 263.066406 190.777344 263.273438 190.925781 263.5 C 191.074219 263.722656 191.203125 263.960938 191.304688 264.210938 C 191.410156 264.460938 191.488281 264.71875 191.539062 264.984375 C 191.59375 265.25 191.617188 265.515625 191.617188 265.785156 Z M 191.617188 265.785156 " fill-opacity="1" fill-rule="nonzero"/><g clip-path="url(#3ade317c8e)"><path fill="#ffffff" d="M 287.699219 148.261719 L 275.148438 148.261719 C 273.09375 140.027344 269.800781 132.207031 265.480469 125.003906 L 274.328125 116.152344 C 277.207031 113.269531 278.648438 109.359375 278.441406 105.039062 C 278.234375 100.921875 276.382812 97.011719 273.296875 93.921875 L 264.65625 85.277344 C 258.277344 78.898438 248.199219 78.484375 242.4375 84.25 L 233.589844 93.097656 C 226.183594 88.777344 218.363281 85.484375 210.136719 83.425781 L 210.136719 71.078125 C 210.136719 62.84375 202.730469 56.050781 193.675781 56.050781 L 181.332031 56.050781 C 172.28125 56.050781 164.871094 62.84375 164.871094 71.078125 L 164.871094 83.425781 C 156.644531 85.484375 148.824219 88.777344 141.625 93.097656 L 132.777344 84.25 C 126.8125 78.484375 116.933594 78.898438 110.558594 85.277344 L 101.917969 93.921875 C 98.625 97.214844 96.773438 101.539062 96.773438 105.859375 C 96.773438 109.769531 98.214844 113.476562 100.886719 116.152344 L 109.734375 125.003906 C 105.414062 132.410156 102.121094 140.027344 100.066406 148.261719 L 87.515625 148.261719 C 79.285156 148.261719 72.496094 155.671875 72.496094 164.726562 L 72.496094 177.074219 C 72.496094 186.132812 79.285156 193.542969 87.515625 193.542969 L 100.066406 193.542969 C 102.121094 201.773438 105.414062 209.597656 109.734375 216.800781 L 100.886719 225.652344 C 98.214844 228.328125 96.773438 232.03125 96.773438 235.941406 C 96.773438 240.265625 98.625 244.792969 101.917969 247.878906 L 110.558594 256.523438 C 116.933594 262.90625 127.015625 263.316406 132.777344 257.554688 L 141.007812 249.320312 L 146.152344 254.464844 C 147.796875 256.113281 150.472656 256.113281 151.910156 254.464844 C 153.558594 252.820312 153.558594 250.144531 151.910156 248.703125 L 143.886719 240.675781 C 142.242188 239.027344 139.773438 239.027344 138.125 240.675781 L 127.015625 251.789062 C 124.34375 254.464844 119.609375 254.054688 116.316406 250.761719 L 107.675781 242.117188 C 106.03125 240.46875 105.003906 238.207031 105.003906 235.941406 C 105.003906 234.707031 105.207031 232.855469 106.648438 231.621094 L 117.757812 220.503906 C 119.199219 219.0625 119.40625 217.007812 118.375 215.359375 C 113.027344 207.125 109.324219 198.070312 107.265625 188.601562 C 106.855469 186.75 105.207031 185.308594 103.152344 185.308594 L 87.515625 185.308594 C 83.8125 185.308594 80.726562 181.605469 80.726562 177.074219 L 80.726562 164.726562 C 80.726562 160.199219 83.8125 156.492188 87.515625 156.492188 L 103.152344 156.492188 C 105.003906 156.492188 106.855469 155.054688 107.265625 153.199219 C 109.324219 143.730469 113.027344 134.675781 118.375 126.441406 C 119.40625 124.796875 119.199219 122.738281 117.757812 121.296875 L 106.648438 110.183594 C 105.207031 108.742188 105.003906 106.890625 105.003906 105.65625 C 105.003906 103.390625 106.03125 101.125 107.675781 99.480469 L 116.316406 90.835938 C 119.609375 87.542969 124.34375 87.128906 127.015625 89.804688 L 138.125 100.921875 C 139.566406 102.363281 141.625 102.566406 143.269531 101.539062 C 151.5 96.1875 160.550781 92.480469 170.015625 90.421875 C 171.867188 90.011719 173.308594 88.367188 173.308594 86.308594 L 173.308594 70.871094 C 173.101562 67.164062 176.804688 64.078125 181.332031 64.078125 L 193.675781 64.078125 C 198.203125 64.078125 201.90625 67.164062 201.90625 70.871094 L 201.90625 86.71875 C 201.90625 88.570312 203.347656 90.421875 205.199219 90.835938 C 214.660156 92.894531 223.714844 96.597656 231.945312 101.949219 C 233.589844 102.980469 235.648438 102.773438 237.085938 101.332031 L 248.199219 90.21875 C 250.871094 87.542969 255.605469 87.953125 258.894531 91.246094 L 267.535156 99.890625 C 269.183594 101.539062 270.210938 103.597656 270.210938 105.65625 C 270.417969 107.507812 269.800781 109.359375 268.566406 110.59375 L 257.457031 121.503906 C 256.015625 122.945312 255.808594 125.003906 256.839844 126.648438 C 262.1875 134.882812 265.890625 143.9375 267.949219 153.40625 C 268.359375 155.257812 270.007812 156.699219 272.0625 156.699219 L 287.699219 156.699219 C 291.402344 156.699219 294.488281 160.402344 294.488281 164.933594 L 294.488281 177.28125 C 294.488281 181.808594 291.402344 185.515625 287.699219 185.515625 L 271.859375 185.515625 C 270.007812 185.515625 268.152344 186.957031 267.742188 188.808594 C 265.683594 198.277344 261.980469 207.332031 256.632812 215.566406 C 255.605469 217.210938 255.808594 219.269531 257.25 220.710938 L 268.359375 231.824219 C 269.59375 233.058594 270.210938 234.707031 270.007812 236.765625 C 269.800781 238.824219 268.976562 240.882812 267.332031 242.527344 L 258.691406 251.171875 C 255.398438 254.464844 250.667969 254.878906 247.992188 252.203125 L 236.882812 241.085938 C 235.234375 239.441406 232.765625 239.441406 231.121094 241.085938 L 223.304688 248.910156 C 221.65625 250.554688 221.65625 253.023438 223.304688 254.671875 C 224.949219 256.320312 227.417969 256.320312 229.0625 254.671875 L 234 249.730469 L 242.230469 257.964844 C 244.90625 260.640625 248.609375 262.082031 252.519531 262.082031 C 256.839844 262.082031 261.160156 260.433594 264.65625 256.9375 L 273.296875 248.292969 C 276.382812 245.203125 278.234375 241.292969 278.441406 237.175781 C 278.648438 232.855469 277.207031 228.945312 274.328125 226.0625 L 265.480469 217.210938 C 269.800781 209.800781 273.09375 202.1875 275.148438 193.953125 L 287.699219 193.953125 C 295.929688 193.953125 302.71875 186.542969 302.71875 177.488281 L 302.71875 165.136719 C 302.71875 155.671875 295.929688 148.261719 287.699219 148.261719 Z M 287.699219 148.261719 " fill-opacity="1" fill-rule="nonzero"/></g><path fill="#ffffff" d="M 222.480469 263.726562 C 220.21875 263.726562 218.363281 265.582031 218.363281 267.84375 L 218.363281 277.519531 C 218.363281 277.929688 217.953125 278.136719 217.542969 278.136719 L 159.523438 278.136719 C 159.113281 278.136719 158.699219 277.929688 158.699219 277.519531 L 158.699219 267.84375 C 158.699219 265.582031 156.847656 263.726562 154.585938 263.726562 C 152.324219 263.726562 150.472656 265.582031 150.472656 267.84375 L 150.472656 277.519531 C 150.472656 282.457031 154.585938 286.367188 159.523438 286.367188 L 217.746094 286.367188 C 222.6875 286.367188 226.800781 282.457031 226.800781 277.519531 L 226.800781 267.84375 C 226.59375 265.582031 224.742188 263.726562 222.480469 263.726562 Z M 222.480469 263.726562 " fill-opacity="1" fill-rule="nonzero"/><path fill="#ffffff" d="M 212.191406 294.601562 L 162.816406 294.601562 C 160.550781 294.601562 158.699219 296.453125 158.699219 298.71875 C 158.699219 300.984375 160.550781 302.835938 162.816406 302.835938 L 212.191406 302.835938 C 214.457031 302.835938 216.308594 300.984375 216.308594 298.71875 C 216.308594 296.453125 214.457031 294.601562 212.191406 294.601562 Z M 212.191406 294.601562 " fill-opacity="1" fill-rule="nonzero"/><g clip-path="url(#27568e6c58)"><path fill="#ffffff" d="M 203.964844 311.066406 L 171.046875 311.066406 C 168.78125 311.066406 166.929688 312.921875 166.929688 315.183594 C 166.929688 317.449219 168.78125 319.300781 171.046875 319.300781 L 203.964844 319.300781 C 206.226562 319.300781 208.078125 317.449219 208.078125 315.183594 C 208.078125 312.921875 206.226562 311.066406 203.964844 311.066406 Z M 203.964844 311.066406 " fill-opacity="1" fill-rule="nonzero"/></g><path fill="#ffffff" d="M 187.503906 215.976562 C 210.957031 215.976562 230.296875 196.835938 230.296875 173.164062 C 230.296875 149.496094 210.957031 130.355469 187.503906 130.355469 C 164.050781 130.355469 144.710938 149.703125 144.710938 173.164062 C 144.710938 196.628906 164.050781 215.976562 187.503906 215.976562 Z M 187.503906 138.585938 C 206.433594 138.585938 222.070312 154.023438 222.070312 173.164062 C 222.070312 192.308594 206.433594 207.742188 187.503906 207.742188 C 168.578125 207.742188 152.941406 192.101562 152.941406 173.164062 C 152.941406 154.230469 168.578125 138.585938 187.503906 138.585938 Z M 187.503906 138.585938 " fill-opacity="1" fill-rule="nonzero"/><path fill="#ffffff" d="M 191.617188 117.59375 L 191.617188 105.242188 C 191.617188 102.980469 189.765625 101.125 187.503906 101.125 C 185.242188 101.125 183.390625 102.980469 183.390625 105.242188 L 183.390625 117.59375 C 183.390625 119.855469 185.242188 121.710938 187.503906 121.710938 C 189.765625 121.710938 191.617188 119.855469 191.617188 117.59375 Z M 191.617188 117.59375 " fill-opacity="1" fill-rule="nonzero"/><path fill="#ffffff" d="M 191.617188 228.738281 C 191.617188 226.472656 189.765625 224.621094 187.503906 224.621094 C 185.242188 224.621094 183.390625 226.472656 183.390625 228.738281 L 183.390625 241.085938 C 183.390625 243.351562 185.242188 245.203125 187.503906 245.203125 C 189.765625 245.203125 191.617188 243.351562 191.617188 241.085938 Z M 191.617188 228.738281 " fill-opacity="1" fill-rule="nonzero"/><path fill="#ffffff" d="M 243.054688 177.28125 L 255.398438 177.28125 C 257.660156 177.28125 259.511719 175.429688 259.511719 173.164062 C 259.511719 170.902344 257.660156 169.046875 255.398438 169.046875 L 243.054688 169.046875 C 240.789062 169.046875 238.9375 170.902344 238.9375 173.164062 C 238.9375 175.429688 240.789062 177.28125 243.054688 177.28125 Z M 243.054688 177.28125 " fill-opacity="1" fill-rule="nonzero"/><path fill="#ffffff" d="M 131.953125 169.046875 L 119.609375 169.046875 C 117.347656 169.046875 115.496094 170.902344 115.496094 173.164062 C 115.496094 175.429688 117.347656 177.28125 119.609375 177.28125 L 131.953125 177.28125 C 134.21875 177.28125 136.070312 175.429688 136.070312 173.164062 C 136.070312 170.902344 134.21875 169.046875 131.953125 169.046875 Z M 131.953125 169.046875 " fill-opacity="1" fill-rule="nonzero"/><path fill="#ffffff" d="M 229.679688 209.597656 C 228.035156 207.949219 225.566406 207.949219 223.921875 209.597656 C 222.273438 211.242188 222.273438 213.710938 223.921875 215.359375 L 232.5625 224.003906 C 233.382812 224.828125 234.414062 225.238281 235.441406 225.238281 C 236.46875 225.238281 237.5 224.828125 238.320312 224.003906 C 239.96875 222.359375 239.96875 219.886719 238.320312 218.242188 Z M 229.679688 209.597656 " fill-opacity="1" fill-rule="nonzero"/><path fill="#ffffff" d="M 145.328125 136.734375 C 146.152344 137.558594 147.179688 137.96875 148.207031 137.96875 C 149.238281 137.96875 150.265625 137.558594 151.089844 136.734375 C 152.734375 135.085938 152.734375 132.617188 151.089844 130.972656 L 142.445312 122.328125 C 140.800781 120.679688 138.332031 120.679688 136.6875 122.328125 C 135.039062 123.972656 135.039062 126.441406 136.6875 128.089844 Z M 145.328125 136.734375 " fill-opacity="1" fill-rule="nonzero"/><path fill="#ffffff" d="M 139.566406 225.238281 C 140.59375 225.238281 141.625 224.828125 142.445312 224.003906 L 151.089844 215.359375 C 152.734375 213.710938 152.734375 211.242188 151.089844 209.597656 C 149.441406 207.949219 146.972656 207.949219 145.328125 209.597656 L 136.6875 218.242188 C 135.039062 219.886719 135.039062 222.359375 136.6875 224.003906 C 137.304688 224.828125 138.539062 225.238281 139.566406 225.238281 Z M 139.566406 225.238281 " fill-opacity="1" fill-rule="nonzero"/><path fill="#ffffff" d="M 232.5625 122.328125 L 223.921875 130.972656 C 222.273438 132.617188 222.273438 135.085938 223.921875 136.734375 C 224.742188 137.558594 225.773438 137.96875 226.800781 137.96875 C 227.828125 137.96875 228.859375 137.558594 229.679688 136.734375 L 238.320312 128.089844 C 239.96875 126.441406 239.96875 123.972656 238.320312 122.328125 C 236.882812 120.679688 234.207031 120.679688 232.5625 122.328125 Z M 232.5625 122.328125 " fill-opacity="1" fill-rule="nonzero"/></svg>