<svg xmlns="http://www.w3.org/2000/svg" xmlns:xlink="http://www.w3.org/1999/xlink" width="500" zoomAndPan="magnify" viewBox="0 0 375 374.999991" height="500" preserveAspectRatio="xMidYMid meet" version="1.0"><defs><clipPath id="b55cedb3c6"><path d="M 7.164062 7.164062 L 367.835938 7.164062 L 367.835938 367.835938 L 7.164062 367.835938 Z M 7.164062 7.164062 " clip-rule="nonzero"/></clipPath><clipPath id="9683639d10"><path d="M 187.5 7.164062 C 87.902344 7.164062 7.164062 87.902344 7.164062 187.5 C 7.164062 287.097656 87.902344 367.835938 187.5 367.835938 C 287.097656 367.835938 367.835938 287.097656 367.835938 187.5 C 367.835938 87.902344 287.097656 7.164062 187.5 7.164062 " clip-rule="nonzero"/></clipPath><clipPath id="edc6b6ad11"><path d="M 70.929688 50 L 298 50 L 298 325.34375 L 70.929688 325.34375 Z M 70.929688 50 " clip-rule="nonzero"/></clipPath><clipPath id="73af6e42c4"><path d="M 230 70 L 304.179688 70 L 304.179688 144 L 230 144 Z M 230 70 " clip-rule="nonzero"/></clipPath></defs><g clip-path="url(#b55cedb3c6)"><g clip-path="url(#9683639d10)"><path fill="#153ec5" d="M 7.164062 7.164062 L 367.835938 7.164062 L 367.835938 367.835938 L 7.164062 367.835938 Z M 7.164062 7.164062 " fill-opacity="1" fill-rule="nonzero"/></g></g><g clip-path="url(#edc6b6ad11)"><path fill="#ffffff" d="M 251.511719 325.246094 L 153.699219 325.246094 C 151.546875 325.246094 149.9375 323.636719 149.9375 321.488281 L 149.9375 296.269531 L 137.035156 296.269531 C 116.078125 296.269531 98.878906 280.171875 98.878906 260.320312 L 98.878906 226.515625 L 90.816406 226.515625 C 90.28125 226.515625 89.203125 226.515625 88.667969 226.515625 C 83.832031 226.515625 77.382812 226.515625 73.617188 222.757812 C 71.46875 220.613281 70.929688 217.394531 70.929688 213.636719 C 70.929688 213.636719 71.46875 213.101562 71.46875 212.5625 L 86.515625 177.6875 C 83.292969 150.859375 85.441406 127.785156 92.964844 108.46875 C 100.492188 90.222656 112.316406 76.273438 128.4375 66.078125 C 146.171875 54.808594 167.671875 49.445312 191.320312 51.054688 C 213.890625 52.125 235.925781 59.101562 254.199219 70.90625 C 255.8125 71.980469 256.347656 74.125 255.273438 76.273438 C 254.199219 77.882812 251.511719 78.417969 249.898438 77.347656 C 214.429688 53.738281 164.984375 52.125 132.199219 72.515625 C 101.027344 92.371094 87.59375 129.394531 94.042969 177.6875 C 94.042969 178.222656 94.042969 178.757812 94.042969 179.832031 L 78.457031 215.246094 C 78.457031 216.320312 78.992188 217.394531 78.992188 217.394531 C 80.605469 219.003906 85.441406 219.003906 88.128906 219.003906 C 89.203125 219.003906 89.742188 219.003906 90.816406 219.003906 L 102.640625 219.003906 C 104.789062 219.003906 106.402344 220.613281 106.402344 222.757812 L 106.402344 260.320312 C 106.402344 275.878906 120.375 288.757812 137.035156 288.757812 L 153.699219 288.757812 C 155.847656 288.757812 157.460938 290.367188 157.460938 292.515625 L 157.460938 317.734375 L 247.75 317.734375 L 247.75 248.515625 C 247.75 247.441406 247.75 246.90625 248.289062 245.832031 C 296.65625 186.808594 294.507812 144.417969 284.832031 118.664062 C 283.757812 117.054688 284.832031 114.371094 286.984375 113.832031 C 288.597656 113.296875 290.746094 113.832031 291.820312 115.980469 C 298.808594 134.222656 299.882812 154.613281 294.507812 176.078125 C 288.597656 199.6875 275.695312 224.367188 255.273438 249.589844 L 255.273438 321.488281 C 255.273438 323.636719 253.660156 325.246094 251.511719 325.246094 Z M 251.511719 325.246094 " fill-opacity="1" fill-rule="evenodd"/></g><g clip-path="url(#73af6e42c4)"><path fill="#ffffff" d="M 267.636719 143.34375 C 266.5625 143.34375 265.484375 142.808594 264.949219 142.273438 C 248.289062 125.636719 230.550781 108.46875 230.550781 90.222656 C 230.550781 79.492188 239.6875 70.371094 250.976562 70.371094 C 259.035156 70.371094 263.875 73.589844 267.636719 78.957031 C 271.398438 73.589844 275.695312 70.371094 283.757812 70.371094 C 295.046875 70.371094 304.179688 79.492188 304.179688 90.222656 C 304.179688 108.46875 286.984375 125.636719 270.324219 142.273438 C 269.246094 142.808594 268.171875 143.34375 267.636719 143.34375 Z M 250.976562 77.882812 C 243.988281 77.882812 238.078125 83.25 238.078125 90.222656 C 238.078125 104.710938 252.585938 119.734375 267.636719 134.222656 C 282.144531 119.734375 296.65625 104.710938 296.65625 90.222656 C 296.65625 83.25 290.746094 77.882812 283.757812 77.882812 C 277.847656 77.882812 274.621094 80.027344 270.859375 88.078125 C 270.324219 89.152344 268.710938 90.222656 267.636719 90.222656 C 266.023438 90.222656 264.410156 89.152344 263.875 88.078125 C 260.109375 80.027344 256.886719 77.882812 250.976562 77.882812 Z M 250.976562 77.882812 " fill-opacity="1" fill-rule="evenodd"/></g><path fill="#ffffff" d="M 187.554688 212.027344 C 155.847656 212.027344 127.363281 194.320312 115 168.027344 C 114.464844 166.953125 114.464844 165.882812 115 164.808594 C 127.363281 137.980469 155.847656 120.808594 187.554688 120.808594 C 219.265625 120.808594 247.75 137.980469 260.109375 164.808594 C 260.648438 165.882812 260.648438 166.953125 260.109375 168.027344 C 247.75 194.320312 219.265625 212.027344 187.554688 212.027344 Z M 122.527344 166.417969 C 134.351562 189.492188 159.609375 204.515625 187.554688 204.515625 C 215.503906 204.515625 240.761719 189.492188 252.585938 166.417969 C 240.761719 142.808594 215.503906 128.320312 187.554688 128.320312 C 159.609375 128.320312 134.351562 142.808594 122.527344 166.417969 Z M 122.527344 166.417969 " fill-opacity="1" fill-rule="evenodd"/><path fill="#ffffff" d="M 187.554688 212.027344 C 162.296875 212.027344 141.875 191.101562 141.875 166.417969 C 141.875 141.199219 162.296875 120.808594 187.554688 120.808594 C 212.816406 120.808594 233.238281 141.199219 233.238281 166.417969 C 233.238281 191.101562 212.816406 212.027344 187.554688 212.027344 Z M 187.554688 128.320312 C 166.597656 128.320312 149.398438 144.953125 149.398438 166.417969 C 149.398438 187.34375 166.597656 204.515625 187.554688 204.515625 C 208.515625 204.515625 225.714844 187.34375 225.714844 166.417969 C 225.714844 144.953125 208.515625 128.320312 187.554688 128.320312 Z M 187.554688 128.320312 " fill-opacity="1" fill-rule="evenodd"/><path fill="#ffffff" d="M 187.554688 183.589844 C 177.882812 183.589844 170.359375 175.539062 170.359375 166.417969 C 170.359375 156.761719 177.882812 149.246094 187.554688 149.246094 C 197.230469 149.246094 204.753906 156.761719 204.753906 166.417969 C 204.753906 175.539062 197.230469 183.589844 187.554688 183.589844 Z M 187.554688 156.761719 C 182.183594 156.761719 177.882812 161.050781 177.882812 166.417969 C 177.882812 171.785156 182.183594 176.078125 187.554688 176.078125 C 192.929688 176.078125 197.230469 171.785156 197.230469 166.417969 C 197.230469 161.050781 192.929688 156.761719 187.554688 156.761719 Z M 187.554688 156.761719 " fill-opacity="1" fill-rule="evenodd"/></svg>