<svg xmlns="http://www.w3.org/2000/svg" xmlns:xlink="http://www.w3.org/1999/xlink" width="500" zoomAndPan="magnify" viewBox="0 0 375 374.999991" height="500" preserveAspectRatio="xMidYMid meet" version="1.0"><defs><clipPath id="a3009c41dc"><path d="M 7.164062 7.164062 L 367.835938 7.164062 L 367.835938 367.835938 L 7.164062 367.835938 Z M 7.164062 7.164062 " clip-rule="nonzero"/></clipPath><clipPath id="525dfec9cd"><path d="M 187.5 7.164062 C 87.902344 7.164062 7.164062 87.902344 7.164062 187.5 C 7.164062 287.097656 87.902344 367.835938 187.5 367.835938 C 287.097656 367.835938 367.835938 287.097656 367.835938 187.5 C 367.835938 87.902344 287.097656 7.164062 187.5 7.164062 " clip-rule="nonzero"/></clipPath><clipPath id="5bccff97fc"><path d="M 62 83.242188 L 272 83.242188 L 272 283 L 62 283 Z M 62 83.242188 " clip-rule="nonzero"/></clipPath></defs><g clip-path="url(#a3009c41dc)"><g clip-path="url(#525dfec9cd)"><path fill="#153ec5" d="M 7.164062 7.164062 L 367.835938 7.164062 L 367.835938 367.835938 L 7.164062 367.835938 Z M 7.164062 7.164062 " fill-opacity="1" fill-rule="nonzero"/></g></g><g clip-path="url(#5bccff97fc)"><path fill="#ffffff" d="M 271.925781 100.074219 L 263.210938 100.074219 L 263.210938 95.8125 C 263.210938 93.363281 261.214844 91.371094 258.761719 91.371094 L 75.960938 91.371094 C 73.464844 91.371094 71.515625 93.363281 71.515625 95.8125 L 71.515625 208.820312 C 71.515625 211.269531 73.511719 213.265625 75.960938 213.265625 L 176.074219 213.265625 L 176.074219 248.089844 L 156.832031 248.089844 L 150.296875 274.210938 L 176.074219 274.210938 L 176.074219 282.917969 L 128.152344 282.917969 C 125.703125 282.917969 123.796875 280.96875 123.796875 278.566406 C 123.796875 276.253906 125.746094 274.210938 128.199219 274.210938 L 139.496094 274.210938 C 140.496094 274.210938 141.402344 273.441406 141.628906 272.535156 L 147.757812 248.089844 L 75.960938 248.089844 C 68.699219 248.089844 62.800781 242.195312 62.800781 235.078125 L 62.800781 95.675781 C 62.800781 88.46875 68.609375 82.664062 75.960938 82.664062 L 258.761719 82.664062 C 266.023438 82.664062 271.925781 88.558594 271.925781 95.675781 Z M 167.363281 239.382812 C 172.171875 239.382812 176.074219 235.484375 176.074219 230.679688 C 176.074219 225.871094 172.171875 221.972656 167.363281 221.972656 C 162.550781 221.972656 158.648438 225.871094 158.648438 230.679688 C 158.648438 235.484375 162.550781 239.382812 167.363281 239.382812 Z M 167.363281 239.382812 " fill-opacity="1" fill-rule="evenodd"/></g><path fill="#ffffff" d="M 306.777344 143.609375 L 298.0625 143.609375 L 298.0625 126.195312 L 193.503906 126.195312 L 193.503906 265.503906 L 228.355469 265.503906 L 228.355469 291.625 L 197.90625 291.625 C 190.644531 291.625 184.789062 285.820312 184.789062 278.519531 L 184.789062 121.886719 C 184.789062 114.632812 190.597656 108.78125 197.90625 108.78125 L 293.664062 108.78125 C 300.921875 108.78125 306.777344 114.585938 306.777344 121.886719 Z M 306.777344 143.609375 " fill-opacity="1" fill-rule="evenodd"/><path fill="#ffffff" d="M 250.1875 152.316406 L 311.089844 152.316406 C 318.351562 152.316406 324.203125 158.121094 324.203125 165.421875 L 324.203125 287.226562 C 324.203125 294.480469 318.394531 300.332031 311.089844 300.332031 L 250.1875 300.332031 C 242.925781 300.332031 237.070312 294.527344 237.070312 287.226562 L 237.070312 165.421875 C 237.070312 158.167969 242.878906 152.316406 250.1875 152.316406 Z M 245.785156 265.503906 L 315.492188 265.503906 L 315.492188 169.730469 L 245.785156 169.730469 Z M 280.636719 291.625 C 285.449219 291.625 289.351562 287.726562 289.351562 282.917969 C 289.351562 278.113281 285.449219 274.210938 280.636719 274.210938 C 275.828125 274.210938 271.925781 278.113281 271.925781 282.917969 C 271.925781 287.726562 275.828125 291.625 280.636719 291.625 Z M 280.636719 291.625 " fill-opacity="1" fill-rule="evenodd"/></svg>