<svg xmlns="http://www.w3.org/2000/svg" xmlns:xlink="http://www.w3.org/1999/xlink" width="500" zoomAndPan="magnify" viewBox="0 0 375 374.999991" height="500" preserveAspectRatio="xMidYMid meet" version="1.0"><defs><clipPath id="92d8f82445"><path d="M 7.164062 7.164062 L 367.835938 7.164062 L 367.835938 367.835938 L 7.164062 367.835938 Z M 7.164062 7.164062 " clip-rule="nonzero"/></clipPath><clipPath id="62a2e6fb1b"><path d="M 187.5 7.164062 C 87.902344 7.164062 7.164062 87.902344 7.164062 187.5 C 7.164062 287.097656 87.902344 367.835938 187.5 367.835938 C 287.097656 367.835938 367.835938 287.097656 367.835938 187.5 C 367.835938 87.902344 287.097656 7.164062 187.5 7.164062 " clip-rule="nonzero"/></clipPath><clipPath id="e5bf1276f5"><path d="M 61.109375 61.109375 L 313.859375 61.109375 L 313.859375 313.859375 L 61.109375 313.859375 Z M 61.109375 61.109375 " clip-rule="nonzero"/></clipPath></defs><g clip-path="url(#92d8f82445)"><g clip-path="url(#62a2e6fb1b)"><path fill="#153ec5" d="M 7.164062 7.164062 L 367.835938 7.164062 L 367.835938 367.835938 L 7.164062 367.835938 Z M 7.164062 7.164062 " fill-opacity="1" fill-rule="nonzero"/></g></g><path fill="#ffffff" d="M 244.863281 78.289062 C 244.304688 78.5 243.890625 78.796875 243.464844 79.175781 C 243.085938 79.605469 242.789062 80.066406 242.574219 80.574219 C 242.378906 81.070312 242.246094 81.628906 242.246094 82.171875 C 242.246094 83.273438 242.707031 84.359375 243.464844 85.167969 C 243.890625 85.542969 244.304688 85.839844 244.863281 86.039062 C 245.355469 86.253906 245.914062 86.382812 246.457031 86.382812 C 247.5625 86.382812 248.648438 85.921875 249.453125 85.167969 C 250.210938 84.359375 250.671875 83.273438 250.671875 82.171875 C 250.671875 81.070312 250.210938 79.984375 249.453125 79.175781 C 248.269531 78.007812 246.375 77.613281 244.863281 78.289062 " fill-opacity="1" fill-rule="nonzero"/><path fill="#ffffff" d="M 266.304688 79.175781 C 265.117188 78.007812 263.226562 77.613281 261.710938 78.289062 C 261.152344 78.5 260.742188 78.796875 260.3125 79.175781 C 259.933594 79.554688 259.640625 80.015625 259.425781 80.574219 C 259.226562 81.070312 259.097656 81.628906 259.097656 82.171875 C 259.097656 83.308594 259.558594 84.359375 260.3125 85.167969 C 260.742188 85.542969 261.152344 85.839844 261.710938 86.039062 C 262.207031 86.253906 262.765625 86.382812 263.308594 86.382812 C 264.445312 86.382812 265.496094 85.921875 266.304688 85.167969 C 267.058594 84.359375 267.519531 83.273438 267.519531 82.171875 C 267.519531 81.628906 267.390625 81.070312 267.175781 80.574219 C 266.976562 80.015625 266.683594 79.605469 266.304688 79.175781 " fill-opacity="1" fill-rule="nonzero"/><path fill="#ffffff" d="M 284.027344 80.574219 C 283.945312 80.3125 283.828125 80.066406 283.648438 79.816406 C 283.53125 79.605469 283.316406 79.390625 283.152344 79.175781 C 281.539062 77.613281 278.761719 77.613281 277.164062 79.175781 C 276.40625 79.984375 275.945312 81.070312 275.945312 82.171875 C 275.945312 83.273438 276.40625 84.359375 277.164062 85.167969 C 277.96875 85.921875 279.054688 86.382812 280.160156 86.382812 C 281.261719 86.382812 282.347656 85.921875 283.152344 85.167969 C 283.910156 84.359375 284.371094 83.273438 284.371094 82.171875 C 284.371094 81.925781 284.320312 81.628906 284.289062 81.363281 C 284.238281 81.070312 284.15625 80.820312 284.027344 80.574219 " fill-opacity="1" fill-rule="nonzero"/><path fill="#ffffff" d="M 126.699219 210.503906 C 132.441406 216.410156 139.15625 222.253906 146.722656 227.863281 C 147.644531 235.878906 149.011719 243.449219 150.804688 250.425781 C 150.722656 250.277344 150.671875 250.113281 150.589844 249.964844 C 148.335938 246.0625 144.699219 243.265625 140.355469 242.097656 C 136.011719 240.945312 131.472656 241.539062 127.570312 243.792969 C 124.261719 245.703125 121.894531 248.597656 120.527344 251.871094 C 117.863281 250.492188 115.804688 248.695312 114.523438 246.457031 C 109.996094 238.609375 114.390625 225.199219 126.699219 210.503906 Z M 114.523438 162.207031 C 119.046875 154.359375 132.851562 151.480469 151.710938 154.769531 C 149.457031 162.816406 147.777344 171.589844 146.722656 180.804688 C 139.15625 186.414062 132.441406 192.253906 126.699219 198.164062 C 114.390625 183.46875 109.996094 170.058594 114.523438 162.207031 Z M 166.421875 124.296875 C 171.0625 124.296875 174.847656 128.082031 174.847656 132.722656 C 174.847656 137.363281 171.0625 141.144531 166.421875 141.144531 C 161.78125 141.144531 157.996094 137.363281 157.996094 132.722656 C 157.996094 128.082031 161.78125 124.296875 166.421875 124.296875 Z M 212.527344 148.617188 C 204.546875 150.625 196.121094 153.519531 187.484375 157.273438 C 180.078125 154.0625 172.855469 151.464844 165.925781 149.523438 C 166.09375 149.523438 166.257812 149.570312 166.421875 149.570312 C 175.71875 149.570312 183.269531 142.019531 183.269531 132.722656 C 183.269531 128.902344 181.9375 125.398438 179.78125 122.570312 C 182.332031 120.957031 184.917969 120.082031 187.484375 120.082031 C 196.550781 120.082031 205.960938 130.597656 212.527344 148.617188 Z M 260.445312 162.207031 C 264.972656 170.058594 260.578125 183.453125 248.285156 198.128906 C 242.445312 192.15625 235.679688 186.316406 228.242188 180.785156 C 227.15625 171.441406 225.460938 162.703125 223.222656 154.789062 C 242.097656 151.480469 255.921875 154.359375 260.445312 162.207031 Z M 264.246094 214.601562 C 268.261719 216.921875 269.660156 222.089844 267.324219 226.105469 C 266.203125 228.0625 264.394531 229.460938 262.207031 230.035156 C 260.035156 230.628906 257.761719 230.316406 255.820312 229.199219 C 253.878906 228.078125 252.480469 226.253906 251.890625 224.078125 C 251.3125 221.90625 251.609375 219.636719 252.746094 217.679688 C 253.863281 215.738281 255.671875 214.339844 257.84375 213.761719 C 260.035156 213.1875 262.304688 213.484375 264.246094 214.601562 Z M 260.445312 246.457031 C 255.921875 254.308594 242.097656 257.1875 223.222656 253.878906 C 225.460938 245.964844 227.15625 237.226562 228.242188 227.863281 C 234.710938 223.058594 240.585938 218.089844 245.734375 213.070312 C 245.636719 213.203125 245.519531 213.335938 245.4375 213.464844 C 240.796875 221.53125 243.5625 231.847656 251.609375 236.488281 C 254.210938 237.984375 257.089844 238.757812 260 238.757812 C 260.726562 238.757812 261.433594 238.707031 262.140625 238.609375 C 262.253906 241.605469 261.730469 244.238281 260.445312 246.457031 Z M 187.484375 288.582031 C 178.433594 288.582031 169.019531 278.070312 162.457031 260.082031 C 170.535156 258.027344 178.976562 255.082031 187.484375 251.410156 C 196.121094 255.148438 204.546875 258.058594 212.511719 260.082031 C 205.945312 278.070312 196.550781 288.582031 187.484375 288.582031 Z M 166.421875 240.816406 C 169.992188 242.871094 173.546875 244.765625 177.085938 246.558594 C 171.226562 248.8125 165.449219 250.636719 159.871094 252.054688 C 158.34375 246.65625 157.058594 240.75 156.070312 234.398438 C 159.410156 236.585938 162.835938 238.742188 166.421875 240.816406 Z M 218.898438 234.398438 C 217.894531 240.765625 216.625 246.722656 215.078125 252.136719 C 209.617188 250.769531 203.824219 248.894531 197.800781 246.574219 C 201.386719 244.765625 204.992188 242.871094 208.546875 240.816406 C 212.132812 238.742188 215.554688 236.585938 218.898438 234.398438 Z M 229.230469 192.207031 C 234.117188 196.171875 238.609375 200.253906 242.609375 204.398438 C 238.707031 208.414062 234.214844 212.480469 229.214844 216.511719 C 229.445312 212.527344 229.609375 208.480469 229.609375 204.332031 C 229.609375 200.203125 229.460938 196.1875 229.230469 192.207031 Z M 197.800781 162.09375 C 203.839844 159.773438 209.632812 157.898438 215.078125 156.53125 C 216.625 161.945312 217.910156 167.902344 218.898438 174.285156 C 215.539062 172.082031 212.101562 169.910156 208.546875 167.851562 C 204.960938 165.78125 201.371094 163.886719 197.800781 162.09375 Z M 156.105469 174.253906 C 157.089844 168.035156 158.390625 162.109375 159.972656 156.566406 C 165.402344 157.929688 171.175781 159.773438 177.167969 162.09375 C 173.597656 163.886719 170.007812 165.78125 166.421875 167.851562 C 162.851562 169.910156 159.445312 172.066406 156.105469 174.253906 Z M 145.753906 216.511719 C 140.71875 212.460938 136.210938 208.382812 132.292969 204.332031 C 136.210938 200.285156 140.71875 196.203125 145.753906 192.140625 C 145.523438 196.171875 145.359375 200.21875 145.359375 204.332031 C 145.359375 208.480469 145.523438 212.527344 145.753906 216.511719 Z M 153.785156 204.332031 C 153.785156 197.867188 154.128906 191.515625 154.707031 185.34375 C 159.625 181.871094 164.925781 178.449219 170.632812 175.140625 C 176.359375 171.835938 182.003906 168.957031 187.484375 166.4375 C 192.964844 168.957031 198.609375 171.835938 204.332031 175.140625 C 209.945312 178.382812 215.261719 181.855469 220.3125 185.445312 C 220.871094 191.449219 221.183594 197.734375 221.183594 204.332031 C 221.183594 210.964844 220.871094 217.265625 220.3125 223.289062 C 215.375 226.777344 210.058594 230.203125 204.332031 233.523438 C 198.722656 236.75 193.0625 239.628906 187.417969 242.214844 C 181.953125 239.695312 176.34375 236.816406 170.632812 233.523438 C 164.90625 230.203125 159.59375 226.777344 154.65625 223.289062 C 154.097656 217.265625 153.785156 210.964844 153.785156 204.332031 Z M 144.140625 260.5625 C 143.546875 262.734375 142.148438 264.542969 140.207031 265.679688 C 138.265625 266.796875 135.996094 267.109375 133.824219 266.515625 C 131.636719 265.941406 129.824219 264.542969 128.707031 262.601562 C 126.371094 258.570312 127.769531 253.402344 131.785156 251.082031 C 133.742188 249.964844 136.011719 249.667969 138.183594 250.242188 C 140.355469 250.820312 142.167969 252.21875 143.285156 254.175781 C 144.421875 256.117188 144.71875 258.390625 144.140625 260.5625 Z M 107.230469 250.671875 C 109.765625 255.082031 113.878906 258.339844 119.292969 260.527344 C 119.574219 262.683594 120.25 264.804688 121.398438 266.8125 C 123.65625 270.695312 127.292969 273.496094 131.636719 274.664062 C 133.082031 275.042969 134.5625 275.238281 136.027344 275.238281 C 138.941406 275.238281 141.820312 274.464844 144.421875 272.96875 C 148.617188 270.550781 151.332031 266.582031 152.351562 262.207031 C 152.992188 262.109375 153.636719 262.007812 154.277344 261.878906 C 161.929688 283.367188 173.84375 297.007812 187.484375 297.007812 C 201.125 297.007812 213.039062 283.367188 220.691406 261.859375 C 226.664062 262.964844 232.339844 263.554688 237.539062 263.554688 C 251.839844 263.554688 262.734375 259.34375 267.734375 250.671875 C 270.285156 246.277344 271.058594 241.078125 270.253906 235.300781 C 271.996094 233.96875 273.496094 232.289062 274.628906 230.316406 C 279.269531 222.285156 276.503906 211.953125 268.460938 207.3125 C 264.558594 205.058594 260.019531 204.464844 255.671875 205.617188 C 255.492188 205.667969 255.34375 205.765625 255.164062 205.816406 C 254.753906 205.304688 254.339844 204.8125 253.929688 204.316406 C 268.707031 186.941406 274.5625 169.8125 267.734375 157.996094 C 260.921875 146.179688 243.152344 142.675781 220.691406 146.808594 C 213.054688 125.300781 201.125 111.660156 187.484375 111.660156 C 182.398438 111.660156 177.527344 113.585938 172.921875 117.171875 C 170.914062 116.332031 168.726562 115.871094 166.421875 115.871094 C 157.125 115.871094 149.570312 123.425781 149.570312 132.722656 C 149.570312 137.558594 151.644531 141.886719 154.917969 144.964844 C 154.707031 145.574219 154.476562 146.179688 154.246094 146.808594 C 131.816406 142.675781 114.042969 146.179688 107.230469 157.996094 C 100.402344 169.8125 106.261719 186.957031 121.054688 204.332031 C 106.261719 221.710938 100.402344 238.855469 107.230469 250.671875 " fill-opacity="1" fill-rule="nonzero"/><path fill="#ffffff" d="M 170.632812 204.332031 C 170.632812 195.035156 178.1875 187.484375 187.484375 187.484375 C 196.78125 187.484375 204.332031 195.035156 204.332031 204.332031 C 204.332031 213.632812 196.78125 221.183594 187.484375 221.183594 C 178.1875 221.183594 170.632812 213.632812 170.632812 204.332031 Z M 212.757812 204.332031 C 212.757812 190.394531 201.421875 179.058594 187.484375 179.058594 C 173.546875 179.058594 162.207031 190.394531 162.207031 204.332031 C 162.207031 218.269531 173.546875 229.609375 187.484375 229.609375 C 201.421875 229.609375 212.757812 218.269531 212.757812 204.332031 " fill-opacity="1" fill-rule="nonzero"/><g clip-path="url(#e5bf1276f5)"><path fill="#ffffff" d="M 305.433594 275.945312 C 305.433594 292.203125 292.203125 305.433594 275.945312 305.433594 L 99.019531 305.433594 C 82.765625 305.433594 69.535156 292.203125 69.535156 275.945312 L 69.535156 103.234375 L 305.433594 103.234375 Z M 99.019531 69.535156 L 275.945312 69.535156 C 290.773438 69.535156 303.082031 80.542969 305.136719 94.808594 L 69.828125 94.808594 C 71.886719 80.542969 84.195312 69.535156 99.019531 69.535156 Z M 275.945312 61.109375 L 99.019531 61.109375 C 78.125 61.109375 61.109375 78.125 61.109375 99.019531 L 61.109375 275.945312 C 61.109375 296.84375 78.125 313.859375 99.019531 313.859375 L 275.945312 313.859375 C 296.84375 313.859375 313.859375 296.84375 313.859375 275.945312 L 313.859375 99.019531 C 313.859375 78.125 296.84375 61.109375 275.945312 61.109375 " fill-opacity="1" fill-rule="nonzero"/></g></svg>