<svg xmlns="http://www.w3.org/2000/svg" xmlns:xlink="http://www.w3.org/1999/xlink" width="600" zoomAndPan="magnify" viewBox="0 0 450 449.999984" height="600" preserveAspectRatio="xMidYMid meet" version="1.0"><defs><clipPath id="3cfa012756"><path d="M 62.101562 45 L 387 45 L 387 405 L 62.101562 405 Z M 62.101562 45 " clip-rule="nonzero"/></clipPath><clipPath id="d1c096d05d"><path d="M 62.101562 45 L 383 45 L 383 314 L 62.101562 314 Z M 62.101562 45 " clip-rule="nonzero"/></clipPath></defs><g clip-path="url(#3cfa012756)"><path fill="#283593" d="M 215.5 48.292969 C 221.289062 45.042969 228.414062 45.042969 234.191406 48.292969 C 262.785156 64.355469 348.835938 112.710938 377.441406 128.773438 C 383.226562 132.015625 386.789062 138.019531 386.789062 144.519531 C 386.789062 176.648438 386.789062 273.34375 386.789062 305.472656 C 386.789062 311.972656 383.226562 317.976562 377.441406 321.226562 C 348.84375 337.292969 262.796875 385.644531 234.191406 401.707031 C 228.402344 404.957031 221.277344 404.957031 215.5 401.707031 C 186.90625 385.644531 100.855469 337.292969 72.25 321.226562 C 66.472656 317.976562 62.910156 311.980469 62.910156 305.480469 C 62.910156 273.351562 62.910156 176.65625 62.910156 144.527344 C 62.910156 138.027344 66.472656 132.023438 72.261719 128.773438 C 100.847656 112.710938 186.914062 64.355469 215.5 48.292969 Z M 215.5 48.292969 " fill-opacity="1" fill-rule="evenodd"/></g><g clip-path="url(#d1c096d05d)"><path fill="#5c6bc0" d="M 65.5 313.753906 C 63.234375 310.71875 62.910156 307.835938 62.910156 303.953125 C 62.910156 272.011719 62.910156 175.871094 62.910156 143.921875 C 62.910156 137.457031 66.464844 131.484375 72.234375 128.261719 C 100.726562 112.292969 186.488281 64.21875 214.980469 48.242188 C 220.75 45.007812 228.566406 45.078125 234.335938 48.308594 C 262.828125 64.28125 348.300781 111.941406 376.792969 127.910156 C 379.09375 129.207031 380.847656 130.769531 382.417969 132.824219 Z M 65.5 313.753906 " fill-opacity="1" fill-rule="evenodd"/></g><path fill="#ffffff" d="M 224.851562 105.570312 C 290.707031 105.570312 344.175781 159.082031 344.175781 225 C 344.175781 290.917969 290.707031 344.429688 224.851562 344.429688 C 158.992188 344.429688 105.527344 290.917969 105.527344 225 C 105.527344 159.082031 158.992188 105.570312 224.851562 105.570312 Z M 224.851562 165.285156 C 257.773438 165.285156 284.511719 192.035156 284.511719 225 C 284.511719 257.953125 257.773438 284.714844 224.851562 284.714844 C 191.925781 284.714844 165.1875 257.953125 165.1875 225 C 165.1875 192.035156 191.917969 165.285156 224.851562 165.285156 Z M 224.851562 165.285156 " fill-opacity="1" fill-rule="evenodd"/><path fill="#3949ab" d="M 382.398438 132.910156 C 386.796875 137.03125 386.710938 143.242188 386.710938 148.128906 C 386.710938 180.503906 386.441406 272.585938 386.789062 304.960938 C 386.824219 308.335938 385.707031 311.894531 384.035156 314.574219 L 221.382812 225 Z M 382.398438 132.910156 " fill-opacity="1" fill-rule="evenodd"/></svg>