<svg xmlns="http://www.w3.org/2000/svg" xmlns:xlink="http://www.w3.org/1999/xlink" width="600" zoomAndPan="magnify" viewBox="0 0 450 449.999984" height="600" preserveAspectRatio="xMidYMid meet" version="1.0"><defs><clipPath id="8656a77265"><path d="M 63.898438 45 L 386.398438 45 L 386.398438 405 L 63.898438 405 Z M 63.898438 45 " clip-rule="nonzero"/></clipPath></defs><g clip-path="url(#8656a77265)"><path fill="#0277bd" d="M 386.355469 45 L 63.945312 45 L 92.394531 367.105469 L 225.148438 405 L 357.90625 367.105469 Z M 386.355469 45 " fill-opacity="1" fill-rule="nonzero"/></g><path fill="#039be5" d="M 225.148438 73.421875 L 225.148438 375.632812 L 331.355469 345.316406 L 355.0625 73.421875 Z M 225.148438 73.421875 " fill-opacity="1" fill-rule="nonzero"/><path fill="#ffffff" d="M 311.441406 120.789062 L 225.148438 120.789062 L 225.148438 158.683594 L 271.613281 158.683594 L 268.769531 196.578125 L 225.148438 196.578125 L 225.148438 234.472656 L 266.875 234.472656 L 264.027344 277.105469 L 225.148438 290.367188 L 225.148438 330.15625 L 300.0625 305.527344 L 306.699219 196.578125 Z M 311.441406 120.789062 " fill-opacity="1" fill-rule="nonzero"/><path fill="#eeeeee" d="M 225.148438 120.789062 L 225.148438 158.683594 L 140.753906 158.683594 L 137.910156 120.789062 Z M 181.53125 196.578125 L 183.425781 234.472656 L 225.148438 234.472656 L 225.148438 196.578125 Z M 185.324219 253.421875 L 147.390625 253.421875 L 150.238281 305.527344 L 225.148438 330.15625 L 225.148438 290.367188 L 186.269531 277.105469 Z M 185.324219 253.421875 " fill-opacity="1" fill-rule="nonzero"/></svg>