<svg xmlns="http://www.w3.org/2000/svg" xmlns:xlink="http://www.w3.org/1999/xlink" width="600" zoomAndPan="magnify" viewBox="0 0 450 449.999984" height="600" preserveAspectRatio="xMidYMid meet" version="1.0"><defs><clipPath id="8afe968c97"><path d="M 45 45 L 405 45 L 405 405 L 45 405 Z M 45 45 " clip-rule="nonzero"/></clipPath></defs><g clip-path="url(#8afe968c97)"><path fill="#f03c2e" d="M 398.203125 208.96875 L 241.03125 51.796875 C 240.496094 51.257812 239.933594 50.75 239.347656 50.265625 C 238.757812 49.785156 238.148438 49.332031 237.519531 48.910156 C 236.886719 48.488281 236.238281 48.097656 235.566406 47.742188 C 234.898438 47.382812 234.210938 47.058594 233.511719 46.769531 C 232.808594 46.476562 232.097656 46.222656 231.371094 46 C 230.644531 45.78125 229.90625 45.597656 229.164062 45.449219 C 228.417969 45.300781 227.667969 45.1875 226.914062 45.113281 C 226.15625 45.039062 225.398438 45.003906 224.640625 45.003906 C 223.878906 45.003906 223.125 45.039062 222.367188 45.113281 C 221.613281 45.1875 220.863281 45.300781 220.117188 45.449219 C 219.371094 45.597656 218.636719 45.78125 217.910156 46 C 217.183594 46.222656 216.46875 46.476562 215.769531 46.769531 C 215.066406 47.058594 214.382812 47.382812 213.710938 47.742188 C 213.042969 48.097656 212.390625 48.488281 211.761719 48.910156 C 211.128906 49.332031 210.519531 49.785156 209.933594 50.265625 C 209.347656 50.75 208.785156 51.257812 208.25 51.796875 L 175.625 84.421875 L 217.023438 125.820312 C 226.652344 122.445312 237.679688 124.75 245.351562 132.421875 C 246.261719 133.332031 247.101562 134.304688 247.875 135.332031 C 248.648438 136.359375 249.34375 137.4375 249.964844 138.5625 C 250.589844 139.6875 251.128906 140.851562 251.589844 142.050781 C 252.046875 143.253906 252.421875 144.480469 252.710938 145.734375 C 252.996094 146.988281 253.195312 148.253906 253.304688 149.535156 C 253.414062 150.816406 253.4375 152.101562 253.367188 153.382812 C 253.296875 154.667969 253.136719 155.941406 252.890625 157.203125 C 252.644531 158.464844 252.308594 159.703125 251.886719 160.921875 L 291.792969 200.824219 C 301.445312 197.492188 312.582031 199.640625 320.289062 207.371094 C 320.925781 208.011719 321.535156 208.679688 322.105469 209.378906 C 322.679688 210.074219 323.21875 210.800781 323.722656 211.550781 C 324.222656 212.304688 324.6875 213.078125 325.113281 213.875 C 325.539062 214.671875 325.925781 215.488281 326.273438 216.324219 C 326.617188 217.160156 326.921875 218.007812 327.1875 218.875 C 327.449219 219.738281 327.667969 220.613281 327.84375 221.5 C 328.019531 222.386719 328.152344 223.28125 328.242188 224.179688 C 328.332031 225.078125 328.375 225.980469 328.375 226.886719 C 328.375 227.789062 328.332031 228.691406 328.242188 229.589844 C 328.15625 230.492188 328.023438 231.382812 327.847656 232.269531 C 327.667969 233.15625 327.449219 234.03125 327.1875 234.898438 C 326.925781 235.761719 326.621094 236.613281 326.273438 237.449219 C 325.929688 238.28125 325.542969 239.097656 325.117188 239.894531 C 324.691406 240.695312 324.226562 241.46875 323.722656 242.21875 C 323.222656 242.972656 322.683594 243.695312 322.109375 244.394531 C 321.535156 245.09375 320.929688 245.761719 320.292969 246.402344 C 319.652344 247.039062 318.984375 247.648438 318.285156 248.21875 C 317.585938 248.792969 316.859375 249.332031 316.109375 249.832031 C 315.355469 250.335938 314.582031 250.800781 313.785156 251.226562 C 312.988281 251.652344 312.171875 252.035156 311.335938 252.382812 C 310.5 252.726562 309.652344 253.03125 308.785156 253.292969 C 307.921875 253.554688 307.042969 253.777344 306.15625 253.953125 C 305.269531 254.128906 304.378906 254.261719 303.480469 254.347656 C 302.578125 254.4375 301.675781 254.480469 300.773438 254.480469 C 299.871094 254.480469 298.96875 254.433594 298.066406 254.347656 C 297.167969 254.257812 296.273438 254.125 295.390625 253.949219 C 294.503906 253.769531 293.625 253.550781 292.761719 253.289062 C 291.898438 253.023438 291.046875 252.71875 290.210938 252.375 C 289.378906 252.027344 288.5625 251.640625 287.765625 251.214844 C 286.96875 250.789062 286.191406 250.324219 285.441406 249.820312 C 284.691406 249.320312 283.964844 248.78125 283.265625 248.207031 C 282.570312 247.632812 281.898438 247.027344 281.261719 246.386719 C 273.160156 238.285156 271.160156 226.359375 275.253906 216.382812 L 238.039062 179.167969 L 238.039062 277.097656 C 240.757812 278.445312 243.195312 280.183594 245.351562 282.320312 C 245.988281 282.957031 246.597656 283.625 247.167969 284.324219 C 247.742188 285.023438 248.28125 285.746094 248.78125 286.5 C 249.285156 287.25 249.746094 288.023438 250.175781 288.820312 C 250.601562 289.617188 250.984375 290.433594 251.332031 291.269531 C 251.675781 292.105469 251.980469 292.953125 252.242188 293.816406 C 252.503906 294.683594 252.726562 295.558594 252.902344 296.445312 C 253.078125 297.332031 253.210938 298.222656 253.296875 299.121094 C 253.386719 300.019531 253.429688 300.921875 253.429688 301.828125 C 253.429688 302.730469 253.386719 303.632812 253.296875 304.53125 C 253.210938 305.429688 253.078125 306.320312 252.902344 307.207031 C 252.726562 308.09375 252.503906 308.96875 252.242188 309.835938 C 251.980469 310.699219 251.675781 311.550781 251.332031 312.382812 C 250.984375 313.21875 250.601562 314.035156 250.175781 314.832031 C 249.746094 315.628906 249.285156 316.402344 248.78125 317.152344 C 248.28125 317.90625 247.742188 318.628906 247.167969 319.328125 C 246.597656 320.027344 245.988281 320.695312 245.351562 321.332031 C 244.710938 321.972656 244.042969 322.578125 243.34375 323.152344 C 242.648438 323.726562 241.921875 324.261719 241.171875 324.765625 C 240.417969 325.265625 239.644531 325.730469 238.847656 326.15625 C 238.050781 326.582031 237.234375 326.96875 236.402344 327.3125 C 235.566406 327.660156 234.714844 327.964844 233.851562 328.226562 C 232.988281 328.488281 232.113281 328.707031 231.226562 328.882812 C 230.339844 329.058594 229.445312 329.191406 228.546875 329.28125 C 227.648438 329.371094 226.746094 329.414062 225.84375 329.414062 C 224.941406 329.414062 224.039062 329.371094 223.140625 329.28125 C 222.242188 329.191406 221.347656 329.058594 220.460938 328.882812 C 219.574219 328.707031 218.699219 328.488281 217.835938 328.226562 C 216.972656 327.964844 216.121094 327.660156 215.285156 327.3125 C 214.453125 326.96875 213.636719 326.582031 212.839844 326.15625 C 212.042969 325.730469 211.269531 325.265625 210.515625 324.765625 C 209.765625 324.261719 209.039062 323.726562 208.34375 323.152344 C 207.644531 322.578125 206.976562 321.972656 206.335938 321.332031 C 205.695312 320.695312 205.089844 320.027344 204.515625 319.328125 C 203.941406 318.628906 203.402344 317.90625 202.902344 317.15625 C 202.398438 316.402344 201.933594 315.628906 201.507812 314.832031 C 201.082031 314.035156 200.695312 313.21875 200.347656 312.386719 C 200.003906 311.550781 199.699219 310.699219 199.433594 309.835938 C 199.171875 308.972656 198.953125 308.097656 198.777344 307.210938 C 198.601562 306.324219 198.46875 305.429688 198.378906 304.53125 C 198.289062 303.632812 198.246094 302.730469 198.246094 301.828125 C 198.246094 300.921875 198.289062 300.019531 198.378906 299.121094 C 198.46875 298.222656 198.601562 297.328125 198.777344 296.441406 C 198.953125 295.554688 199.171875 294.679688 199.433594 293.816406 C 199.699219 292.953125 200.003906 292.101562 200.347656 291.265625 C 200.695312 290.433594 201.082031 289.617188 201.507812 288.820312 C 201.933594 288.023438 202.398438 287.25 202.902344 286.496094 C 203.402344 285.746094 203.941406 285.023438 204.515625 284.324219 C 205.089844 283.625 205.695312 282.957031 206.335938 282.320312 C 209.003906 279.664062 211.960938 277.648438 215.371094 276.300781 L 215.371094 177.457031 C 212.085938 176.109375 209.003906 174.117188 206.335938 171.4375 C 205.375 170.476562 204.484375 169.449219 203.675781 168.355469 C 202.863281 167.261719 202.136719 166.117188 201.496094 164.914062 C 200.855469 163.714844 200.308594 162.472656 199.851562 161.191406 C 199.394531 159.90625 199.035156 158.597656 198.769531 157.261719 C 198.507812 155.925781 198.34375 154.578125 198.28125 153.21875 C 198.21875 151.859375 198.253906 150.503906 198.394531 149.148438 C 198.53125 147.796875 198.765625 146.457031 199.101562 145.140625 C 199.4375 143.820312 199.871094 142.53125 200.394531 141.277344 L 159.558594 100.460938 L 51.785156 208.125 C 51.246094 208.660156 50.738281 209.222656 50.253906 209.808594 C 49.773438 210.398438 49.320312 211.007812 48.898438 211.636719 C 48.476562 212.269531 48.085938 212.921875 47.726562 213.589844 C 47.367188 214.257812 47.042969 214.945312 46.753906 215.648438 C 46.460938 216.347656 46.207031 217.0625 45.984375 217.789062 C 45.765625 218.515625 45.582031 219.253906 45.433594 219.996094 C 45.285156 220.742188 45.171875 221.492188 45.097656 222.25 C 45.023438 223.003906 44.984375 223.761719 44.984375 224.523438 C 44.984375 225.28125 45.023438 226.039062 45.097656 226.796875 C 45.171875 227.550781 45.285156 228.300781 45.433594 229.046875 C 45.582031 229.792969 45.765625 230.527344 45.984375 231.253906 C 46.207031 231.980469 46.460938 232.695312 46.753906 233.398438 C 47.042969 234.097656 47.367188 234.785156 47.726562 235.453125 C 48.085938 236.125 48.476562 236.773438 48.898438 237.40625 C 49.320312 238.039062 49.773438 238.644531 50.253906 239.234375 C 50.738281 239.820312 51.246094 240.382812 51.785156 240.917969 L 208.96875 398.082031 C 209.503906 398.617188 210.066406 399.128906 210.652344 399.609375 C 211.242188 400.089844 211.851562 400.542969 212.480469 400.964844 C 213.113281 401.386719 213.761719 401.777344 214.433594 402.136719 C 215.101562 402.492188 215.789062 402.816406 216.488281 403.109375 C 217.191406 403.398438 217.902344 403.652344 218.628906 403.875 C 219.355469 404.09375 220.09375 404.277344 220.835938 404.425781 C 221.582031 404.574219 222.332031 404.6875 223.085938 404.761719 C 223.84375 404.835938 224.601562 404.871094 225.359375 404.871094 C 226.121094 404.871094 226.875 404.835938 227.632812 404.761719 C 228.386719 404.6875 229.136719 404.574219 229.882812 404.425781 C 230.628906 404.277344 231.363281 404.09375 232.089844 403.875 C 232.816406 403.652344 233.53125 403.398438 234.230469 403.109375 C 234.933594 402.816406 235.617188 402.492188 236.289062 402.136719 C 236.957031 401.777344 237.609375 401.386719 238.238281 400.964844 C 238.871094 400.542969 239.480469 400.089844 240.066406 399.609375 C 240.652344 399.128906 241.214844 398.617188 241.75 398.082031 L 398.203125 241.875 C 398.742188 241.339844 399.253906 240.777344 399.734375 240.1875 C 400.214844 239.601562 400.667969 238.992188 401.089844 238.363281 C 401.511719 237.730469 401.902344 237.078125 402.261719 236.410156 C 402.621094 235.742188 402.945312 235.054688 403.234375 234.351562 C 403.527344 233.652344 403.78125 232.9375 404.003906 232.210938 C 404.222656 231.484375 404.40625 230.746094 404.554688 230.003906 C 404.703125 229.257812 404.816406 228.507812 404.890625 227.75 C 404.964844 226.996094 405.003906 226.238281 405.003906 225.476562 C 405.003906 224.71875 404.964844 223.960938 404.890625 223.203125 C 404.816406 222.449219 404.703125 221.699219 404.554688 220.953125 C 404.40625 220.207031 404.222656 219.472656 404.003906 218.746094 C 403.78125 218.019531 403.527344 217.304688 403.234375 216.601562 C 402.945312 215.902344 402.621094 215.214844 402.261719 214.546875 C 401.902344 213.875 401.511719 213.226562 401.089844 212.59375 C 400.667969 211.960938 400.214844 211.355469 399.734375 210.765625 C 399.253906 210.179688 398.742188 209.617188 398.203125 209.082031 " fill-opacity="1" fill-rule="nonzero"/></g></svg>