<svg xmlns="http://www.w3.org/2000/svg" xmlns:xlink="http://www.w3.org/1999/xlink" width="600" zoomAndPan="magnify" viewBox="0 0 450 449.999984" height="600" preserveAspectRatio="xMidYMid meet" version="1.0"><defs><clipPath id="24455424b5"><path d="M 65.761719 44 L 384.511719 44 L 384.511719 406 L 65.761719 406 Z M 65.761719 44 " clip-rule="nonzero"/></clipPath></defs><g clip-path="url(#24455424b5)"><path fill="#e44d26" d="M 94.699219 369.382812 L 65.671875 44.316406 L 384.605469 44.316406 L 355.554688 369.335938 L 224.933594 405.476562 Z M 94.699219 369.382812 " fill-opacity="1" fill-rule="nonzero"/></g><path fill="#f16529" d="M 330.675781 348.636719 L 355.507812 70.894531 L 225.136719 70.894531 L 225.136719 377.859375 Z M 330.675781 348.636719 " fill-opacity="1" fill-rule="nonzero"/><path fill="#ebebeb" d="M 225.003906 110.757812 L 125.015625 110.757812 L 135.785156 231.324219 L 225.136719 231.324219 L 225.136719 191.460938 L 172.308594 191.460938 L 168.65625 150.636719 L 225.136719 150.636719 L 225.136719 110.757812 Z M 225.136719 294.867188 L 224.96875 294.914062 L 180.503906 282.925781 L 177.675781 251.132812 L 137.574219 251.132812 L 143.167969 313.726562 L 224.957031 336.300781 L 225.136719 336.246094 Z M 225.136719 294.867188 " fill-opacity="1" fill-rule="nonzero"/><path fill="#ffffff" d="M 225.003906 231.324219 L 274.171875 231.324219 L 269.652344 283.015625 L 225.117188 295.015625 L 225.117188 336.492188 L 306.972656 313.839844 L 317.9375 191.4375 L 225.136719 191.4375 Z M 324.0625 121.460938 L 325.011719 110.757812 L 224.980469 110.757812 L 224.980469 150.625 L 321.417969 150.625 L 322.210938 141.664062 Z M 324.0625 121.460938 " fill-opacity="1" fill-rule="nonzero"/></svg>