<svg xmlns="http://www.w3.org/2000/svg" xmlns:xlink="http://www.w3.org/1999/xlink" width="600" zoomAndPan="magnify" viewBox="0 0 450 449.999984" height="600" preserveAspectRatio="xMidYMid meet" version="1.0"><path fill="#ffd600" d="M 45 45 L 405 45 L 405 405 L 45 405 Z M 45 45 " fill-opacity="1" fill-rule="nonzero"/><path fill="#000001" d="M 280.378906 314.46875 C 287.300781 325.710938 294.820312 336.480469 310.75 336.480469 C 324.128906 336.480469 331.148438 329.828125 331.148438 320.628906 C 331.148438 309.621094 323.890625 305.710938 309.171875 299.300781 L 301.101562 295.859375 C 277.808594 285.980469 262.320312 273.601562 262.320312 247.449219 C 262.320312 223.351562 280.769531 205.011719 309.601562 205.011719 C 330.128906 205.011719 344.878906 212.121094 355.519531 230.738281 L 330.378906 246.808594 C 324.851562 236.929688 318.871094 233.039062 309.601562 233.039062 C 300.140625 233.039062 294.148438 239.011719 294.148438 246.808594 C 294.148438 256.449219 300.148438 260.351562 314 266.320312 L 322.070312 269.761719 C 349.519531 281.449219 365 293.390625 365 320.230469 C 365 349.148438 342.160156 365 311.5 365 C 281.511719 365 264.480469 349.949219 255 331.320312 Z M 164.519531 315.289062 C 169.578125 324.351562 177.269531 331.320312 188.328125 331.320312 C 198.910156 331.320312 205 327.140625 205 310.890625 L 205 205 L 238.328125 205 L 238.328125 316.011719 C 238.328125 349.679688 218.800781 365 190.28125 365 C 164.511719 365 145.910156 347.539062 138.328125 331.320312 Z M 164.519531 315.289062 " fill-opacity="1" fill-rule="nonzero"/></svg>